<mxfile host="app.diagrams.net" modified="2023-12-15T18:25:53.031Z" agent="Mozilla/5.0 (Windows NT 10.0; Win64; x64) AppleWebKit/537.36 (KHTML, like Gecko) Chrome/120.0.0.0 Safari/537.36" etag="CjhP2tTP-wv6kcFvqJOh" version="22.1.9" type="device">
  <diagram name="PÃ¡gina-1" id="EFYWipsjhRD6L3geR2Ek">
    <mxGraphModel dx="1050" dy="1725" grid="1" gridSize="10" guides="1" tooltips="1" connect="1" arrows="1" fold="1" page="1" pageScale="1" pageWidth="827" pageHeight="1169" math="0" shadow="0">
      <root>
        <mxCell id="0" />
        <mxCell id="1" parent="0" />
        <mxCell id="rJCrbgsS6W7o_3RO-0H0-1" value="&lt;b&gt;conducemas3&lt;/b&gt;" style="text;html=1;strokeColor=none;fillColor=none;align=center;verticalAlign=middle;whiteSpace=wrap;rounded=0;fontSize=16;" vertex="1" parent="1">
          <mxGeometry x="659" y="-353" width="60" height="30" as="geometry" />
        </mxCell>
        <mxCell id="rJCrbgsS6W7o_3RO-0H0-3" value="&lt;b&gt;papaEnfermo&lt;/b&gt;" style="text;html=1;strokeColor=none;fillColor=none;align=center;verticalAlign=middle;whiteSpace=wrap;rounded=0;fontSize=16;" vertex="1" parent="1">
          <mxGeometry x="507.5" y="-353" width="60" height="30" as="geometry" />
        </mxCell>
        <mxCell id="rJCrbgsS6W7o_3RO-0H0-4" value="&lt;b&gt;escapaJulieta&lt;/b&gt;" style="text;html=1;strokeColor=none;fillColor=none;align=center;verticalAlign=middle;whiteSpace=wrap;rounded=0;fontSize=16;" vertex="1" parent="1">
          <mxGeometry x="370" y="80" width="60" height="30" as="geometry" />
        </mxCell>
        <mxCell id="rJCrbgsS6W7o_3RO-0H0-5" value="&lt;b&gt;botasSigilo&lt;/b&gt;" style="text;html=1;strokeColor=none;fillColor=none;align=center;verticalAlign=middle;whiteSpace=wrap;rounded=0;fontSize=16;" vertex="1" parent="1">
          <mxGeometry x="101" y="-218" width="60" height="30" as="geometry" />
        </mxCell>
        <mxCell id="rJCrbgsS6W7o_3RO-0H0-6" value="&lt;b&gt;saltaValla&lt;/b&gt;" style="text;html=1;strokeColor=none;fillColor=none;align=center;verticalAlign=middle;whiteSpace=wrap;rounded=0;fontSize=16;" vertex="1" parent="1">
          <mxGeometry x="259" y="-220" width="60" height="30" as="geometry" />
        </mxCell>
        <mxCell id="rJCrbgsS6W7o_3RO-0H0-7" value="&lt;b&gt;noPerros&lt;/b&gt;" style="text;html=1;strokeColor=none;fillColor=none;align=center;verticalAlign=middle;whiteSpace=wrap;rounded=0;fontSize=16;" vertex="1" parent="1">
          <mxGeometry x="259.25" y="-350" width="60.75" height="30" as="geometry" />
        </mxCell>
        <mxCell id="rJCrbgsS6W7o_3RO-0H0-8" value="&lt;b&gt;entraPalacio&lt;/b&gt;" style="text;html=1;strokeColor=none;fillColor=none;align=center;verticalAlign=middle;whiteSpace=wrap;rounded=0;fontSize=16;" vertex="1" parent="1">
          <mxGeometry x="259" y="-62" width="60" height="30" as="geometry" />
        </mxCell>
        <mxCell id="rJCrbgsS6W7o_3RO-0H0-9" value="&lt;b&gt;guardiaDuerme&lt;/b&gt;" style="text;html=1;strokeColor=none;fillColor=none;align=center;verticalAlign=middle;whiteSpace=wrap;rounded=0;fontSize=16;" vertex="1" parent="1">
          <mxGeometry x="480" y="-218" width="60" height="30" as="geometry" />
        </mxCell>
        <mxCell id="rJCrbgsS6W7o_3RO-0H0-10" value="&lt;b&gt;noCriadas&lt;/b&gt;" style="text;html=1;strokeColor=none;fillColor=none;align=center;verticalAlign=middle;whiteSpace=wrap;rounded=0;fontSize=16;" vertex="1" parent="1">
          <mxGeometry x="590" y="-218" width="60" height="30" as="geometry" />
        </mxCell>
        <mxCell id="rJCrbgsS6W7o_3RO-0H0-11" style="edgeStyle=none;curved=1;rounded=0;orthogonalLoop=1;jettySize=auto;html=1;exitX=0.5;exitY=1;exitDx=0;exitDy=0;entryX=0.25;entryY=0;entryDx=0;entryDy=0;fontSize=12;startSize=8;endSize=8;" edge="1" parent="1" source="rJCrbgsS6W7o_3RO-0H0-12" target="rJCrbgsS6W7o_3RO-0H0-8">
          <mxGeometry relative="1" as="geometry" />
        </mxCell>
        <mxCell id="rJCrbgsS6W7o_3RO-0H0-12" value="R&lt;span style=&quot;font-size: 13.3333px;&quot;&gt;2&lt;/span&gt;" style="rounded=1;whiteSpace=wrap;html=1;fontSize=16;" vertex="1" parent="1">
          <mxGeometry x="180" y="-130" width="39" height="29" as="geometry" />
        </mxCell>
        <mxCell id="rJCrbgsS6W7o_3RO-0H0-13" style="edgeStyle=none;curved=1;rounded=0;orthogonalLoop=1;jettySize=auto;html=1;exitX=0.5;exitY=1;exitDx=0;exitDy=0;entryX=0.5;entryY=0;entryDx=0;entryDy=0;fontSize=12;startSize=8;endSize=8;" edge="1" parent="1" source="rJCrbgsS6W7o_3RO-0H0-14" target="rJCrbgsS6W7o_3RO-0H0-6">
          <mxGeometry relative="1" as="geometry" />
        </mxCell>
        <mxCell id="rJCrbgsS6W7o_3RO-0H0-14" value="R&lt;span style=&quot;font-size: 13.3333px;&quot;&gt;1&lt;/span&gt;" style="rounded=1;whiteSpace=wrap;html=1;fontSize=16;" vertex="1" parent="1">
          <mxGeometry x="269.75" y="-292" width="38.5" height="29" as="geometry" />
        </mxCell>
        <mxCell id="rJCrbgsS6W7o_3RO-0H0-15" style="edgeStyle=none;curved=1;rounded=0;orthogonalLoop=1;jettySize=auto;html=1;entryX=0.75;entryY=0;entryDx=0;entryDy=0;fontSize=12;startSize=8;endSize=8;exitX=0.5;exitY=1;exitDx=0;exitDy=0;" edge="1" parent="1" source="rJCrbgsS6W7o_3RO-0H0-62" target="rJCrbgsS6W7o_3RO-0H0-4">
          <mxGeometry relative="1" as="geometry">
            <mxPoint x="470" y="40" as="sourcePoint" />
          </mxGeometry>
        </mxCell>
        <mxCell id="rJCrbgsS6W7o_3RO-0H0-17" value="R&lt;span style=&quot;font-size: 13.3333px;&quot;&gt;4&lt;/span&gt;" style="rounded=1;whiteSpace=wrap;html=1;fontSize=16;" vertex="1" parent="1">
          <mxGeometry x="590" y="-292" width="39" height="29" as="geometry" />
        </mxCell>
        <mxCell id="rJCrbgsS6W7o_3RO-0H0-18" style="edgeStyle=none;curved=1;rounded=0;orthogonalLoop=1;jettySize=auto;html=1;exitX=0.5;exitY=1;exitDx=0;exitDy=0;fontSize=12;startSize=8;endSize=8;entryX=0.627;entryY=-0.1;entryDx=0;entryDy=0;entryPerimeter=0;" edge="1" parent="1" source="rJCrbgsS6W7o_3RO-0H0-19" target="rJCrbgsS6W7o_3RO-0H0-50">
          <mxGeometry relative="1" as="geometry">
            <mxPoint x="295.5" y="-62" as="targetPoint" />
          </mxGeometry>
        </mxCell>
        <mxCell id="rJCrbgsS6W7o_3RO-0H0-19" value="R&lt;span style=&quot;font-size: 13.3333px;&quot;&gt;4&lt;/span&gt;" style="rounded=1;whiteSpace=wrap;html=1;fontSize=16;" vertex="1" parent="1">
          <mxGeometry x="575.5" y="-130" width="39" height="29" as="geometry" />
        </mxCell>
        <mxCell id="rJCrbgsS6W7o_3RO-0H0-22" style="edgeStyle=none;curved=1;rounded=0;orthogonalLoop=1;jettySize=auto;html=1;entryX=0.25;entryY=0;entryDx=0;entryDy=0;fontSize=12;startSize=8;endSize=8;exitX=0.5;exitY=1;exitDx=0;exitDy=0;" edge="1" parent="1" source="rJCrbgsS6W7o_3RO-0H0-61" target="rJCrbgsS6W7o_3RO-0H0-4">
          <mxGeometry relative="1" as="geometry">
            <mxPoint x="330" y="40" as="sourcePoint" />
          </mxGeometry>
        </mxCell>
        <mxCell id="rJCrbgsS6W7o_3RO-0H0-26" value="" style="endArrow=none;html=1;rounded=0;fontSize=12;startSize=8;endSize=8;edgeStyle=none;curved=1;entryX=0.5;entryY=1;entryDx=0;entryDy=0;exitX=0.5;exitY=0;exitDx=0;exitDy=0;" edge="1" parent="1" source="rJCrbgsS6W7o_3RO-0H0-14" target="rJCrbgsS6W7o_3RO-0H0-7">
          <mxGeometry width="50" height="50" relative="1" as="geometry">
            <mxPoint x="264" y="-242" as="sourcePoint" />
            <mxPoint x="314" y="-292" as="targetPoint" />
          </mxGeometry>
        </mxCell>
        <mxCell id="rJCrbgsS6W7o_3RO-0H0-27" value="" style="endArrow=none;html=1;rounded=0;fontSize=12;startSize=8;endSize=8;edgeStyle=none;curved=1;entryX=0.5;entryY=1;entryDx=0;entryDy=0;exitX=0.5;exitY=0;exitDx=0;exitDy=0;" edge="1" parent="1" source="rJCrbgsS6W7o_3RO-0H0-17" target="rJCrbgsS6W7o_3RO-0H0-3">
          <mxGeometry width="50" height="50" relative="1" as="geometry">
            <mxPoint x="245.5" y="120" as="sourcePoint" />
            <mxPoint x="295.5" y="70" as="targetPoint" />
          </mxGeometry>
        </mxCell>
        <mxCell id="rJCrbgsS6W7o_3RO-0H0-28" value="" style="endArrow=none;html=1;rounded=0;fontSize=12;startSize=8;endSize=8;edgeStyle=none;curved=1;entryX=0.5;entryY=1;entryDx=0;entryDy=0;exitX=0.5;exitY=0;exitDx=0;exitDy=0;" edge="1" parent="1" source="rJCrbgsS6W7o_3RO-0H0-17" target="rJCrbgsS6W7o_3RO-0H0-1">
          <mxGeometry width="50" height="50" relative="1" as="geometry">
            <mxPoint x="291.5" y="136.5" as="sourcePoint" />
            <mxPoint x="341.5" y="86.5" as="targetPoint" />
          </mxGeometry>
        </mxCell>
        <mxCell id="rJCrbgsS6W7o_3RO-0H0-29" value="" style="endArrow=none;html=1;rounded=0;fontSize=12;startSize=8;endSize=8;edgeStyle=none;curved=1;entryX=0.25;entryY=1;entryDx=0;entryDy=0;exitX=0.25;exitY=0;exitDx=0;exitDy=0;" edge="1" parent="1" source="rJCrbgsS6W7o_3RO-0H0-12" target="rJCrbgsS6W7o_3RO-0H0-5">
          <mxGeometry width="50" height="50" relative="1" as="geometry">
            <mxPoint x="159" y="-66" as="sourcePoint" />
            <mxPoint x="74" y="-131" as="targetPoint" />
          </mxGeometry>
        </mxCell>
        <mxCell id="rJCrbgsS6W7o_3RO-0H0-30" value="" style="endArrow=none;html=1;rounded=0;fontSize=12;edgeStyle=none;curved=1;entryX=0.25;entryY=1;entryDx=0;entryDy=0;exitX=0.75;exitY=0;exitDx=0;exitDy=0;entryPerimeter=0;" edge="1" parent="1" source="rJCrbgsS6W7o_3RO-0H0-12" target="rJCrbgsS6W7o_3RO-0H0-6">
          <mxGeometry width="50" height="50" relative="1" as="geometry">
            <mxPoint x="234" y="-82" as="sourcePoint" />
            <mxPoint x="279" y="-147" as="targetPoint" />
          </mxGeometry>
        </mxCell>
        <mxCell id="rJCrbgsS6W7o_3RO-0H0-31" value="" style="endArrow=none;html=1;rounded=0;fontSize=12;startSize=8;endSize=8;edgeStyle=none;curved=1;entryX=0.5;entryY=1;entryDx=0;entryDy=0;exitX=0.5;exitY=0;exitDx=0;exitDy=0;" edge="1" parent="1" source="rJCrbgsS6W7o_3RO-0H0-19" target="rJCrbgsS6W7o_3RO-0H0-9">
          <mxGeometry width="50" height="50" relative="1" as="geometry">
            <mxPoint x="444.5" y="-18" as="sourcePoint" />
            <mxPoint x="494.5" y="-68" as="targetPoint" />
          </mxGeometry>
        </mxCell>
        <mxCell id="rJCrbgsS6W7o_3RO-0H0-32" value="" style="endArrow=none;html=1;rounded=0;fontSize=12;startSize=8;endSize=8;edgeStyle=none;curved=1;entryX=0.25;entryY=1;entryDx=0;entryDy=0;exitX=0.346;exitY=0.928;exitDx=0;exitDy=0;exitPerimeter=0;" edge="1" parent="1" source="rJCrbgsS6W7o_3RO-0H0-55" target="rJCrbgsS6W7o_3RO-0H0-10">
          <mxGeometry width="50" height="50" relative="1" as="geometry">
            <mxPoint x="607.5" y="-154" as="sourcePoint" />
            <mxPoint x="504.5" y="-58" as="targetPoint" />
          </mxGeometry>
        </mxCell>
        <mxCell id="rJCrbgsS6W7o_3RO-0H0-33" value="" style="endArrow=classic;html=1;rounded=0;fontSize=12;startSize=8;endSize=8;edgeStyle=none;curved=1;exitX=0.5;exitY=1;exitDx=0;exitDy=0;" edge="1" parent="1" source="rJCrbgsS6W7o_3RO-0H0-17">
          <mxGeometry width="50" height="50" relative="1" as="geometry">
            <mxPoint x="601.5" y="-247" as="sourcePoint" />
            <mxPoint x="610" y="-210" as="targetPoint" />
          </mxGeometry>
        </mxCell>
        <mxCell id="rJCrbgsS6W7o_3RO-0H0-35" value="&lt;font color=&quot;#ff1212&quot; style=&quot;font-size: 12px;&quot;&gt;&lt;b&gt;FC=1&lt;/b&gt;&lt;/font&gt;" style="text;html=1;strokeColor=none;fillColor=none;align=center;verticalAlign=middle;whiteSpace=wrap;rounded=0;fontSize=16;" vertex="1" parent="1">
          <mxGeometry x="690" y="-239" width="60" height="30" as="geometry" />
        </mxCell>
        <mxCell id="rJCrbgsS6W7o_3RO-0H0-36" value="&lt;font style=&quot;font-size: 12px;&quot; color=&quot;#ff1212&quot;&gt;&lt;b&gt;FC=0.6&lt;/b&gt;&lt;/font&gt;" style="text;html=1;strokeColor=none;fillColor=none;align=center;verticalAlign=middle;whiteSpace=wrap;rounded=0;fontSize=16;" vertex="1" parent="1">
          <mxGeometry x="655" y="-383" width="60" height="30" as="geometry" />
        </mxCell>
        <mxCell id="rJCrbgsS6W7o_3RO-0H0-37" value="&lt;font color=&quot;#ff1212&quot; style=&quot;font-size: 12px;&quot;&gt;&lt;b&gt;FC=1&lt;/b&gt;&lt;/font&gt;" style="text;html=1;strokeColor=none;fillColor=none;align=center;verticalAlign=middle;whiteSpace=wrap;rounded=0;fontSize=16;" vertex="1" parent="1">
          <mxGeometry x="500" y="-383" width="60" height="30" as="geometry" />
        </mxCell>
        <mxCell id="rJCrbgsS6W7o_3RO-0H0-38" value="&lt;font color=&quot;#ff1212&quot; style=&quot;font-size: 12px;&quot;&gt;&lt;b&gt;FC=1&lt;/b&gt;&lt;/font&gt;" style="text;html=1;strokeColor=none;fillColor=none;align=center;verticalAlign=middle;whiteSpace=wrap;rounded=0;fontSize=16;" vertex="1" parent="1">
          <mxGeometry x="259" y="-368" width="60" height="30" as="geometry" />
        </mxCell>
        <mxCell id="rJCrbgsS6W7o_3RO-0H0-41" value="&lt;b&gt;&lt;font color=&quot;#ff1212&quot; style=&quot;font-size: 12px;&quot;&gt;FC=0.7&lt;/font&gt;&lt;/b&gt;" style="text;html=1;strokeColor=none;fillColor=none;align=center;verticalAlign=middle;whiteSpace=wrap;rounded=0;fontSize=16;" vertex="1" parent="1">
          <mxGeometry x="93" y="-250" width="60" height="30" as="geometry" />
        </mxCell>
        <mxCell id="rJCrbgsS6W7o_3RO-0H0-42" value="&lt;font color=&quot;#ff1212&quot; style=&quot;font-size: 12px;&quot;&gt;&lt;b&gt;FC=0.8&lt;/b&gt;&lt;/font&gt;" style="text;html=1;strokeColor=none;fillColor=none;align=center;verticalAlign=middle;whiteSpace=wrap;rounded=0;fontSize=16;" vertex="1" parent="1">
          <mxGeometry x="510" y="-131" width="60" height="30" as="geometry" />
        </mxCell>
        <mxCell id="rJCrbgsS6W7o_3RO-0H0-43" value="&lt;b&gt;&lt;font color=&quot;#ff1212&quot; style=&quot;font-size: 12px;&quot;&gt;FC=0.7&lt;/font&gt;&lt;/b&gt;" style="text;html=1;strokeColor=none;fillColor=none;align=center;verticalAlign=middle;whiteSpace=wrap;rounded=0;fontSize=16;" vertex="1" parent="1">
          <mxGeometry x="209.75" y="-292.5" width="60" height="30" as="geometry" />
        </mxCell>
        <mxCell id="rJCrbgsS6W7o_3RO-0H0-44" value="&lt;font color=&quot;#ff1212&quot; style=&quot;font-size: 12px;&quot;&gt;&lt;b&gt;FC=0.3&lt;/b&gt;&lt;/font&gt;" style="text;html=1;strokeColor=none;fillColor=none;align=center;verticalAlign=middle;whiteSpace=wrap;rounded=0;fontSize=16;" vertex="1" parent="1">
          <mxGeometry x="470" y="-239" width="60" height="30" as="geometry" />
        </mxCell>
        <mxCell id="rJCrbgsS6W7o_3RO-0H0-46" value="&lt;b&gt;&lt;font style=&quot;font-size: 12px;&quot; color=&quot;#ff1212&quot;&gt;FC=0.9&lt;/font&gt;&lt;/b&gt;" style="text;html=1;strokeColor=none;fillColor=none;align=center;verticalAlign=middle;whiteSpace=wrap;rounded=0;fontSize=16;" vertex="1" parent="1">
          <mxGeometry x="110" y="-131" width="60" height="30" as="geometry" />
        </mxCell>
        <mxCell id="rJCrbgsS6W7o_3RO-0H0-48" value="" style="verticalLabelPosition=bottom;verticalAlign=top;html=1;shape=mxgraph.basic.arc;startAngle=0.3;endAngle=0.7705747559124867;rotation=-195;" vertex="1" parent="1">
          <mxGeometry x="177" y="-159" width="44" height="41" as="geometry" />
        </mxCell>
        <mxCell id="rJCrbgsS6W7o_3RO-0H0-50" value="&lt;b&gt;noSeguridad&lt;br&gt;&lt;/b&gt;" style="text;html=1;strokeColor=none;fillColor=none;align=center;verticalAlign=middle;whiteSpace=wrap;rounded=0;fontSize=16;" vertex="1" parent="1">
          <mxGeometry x="470" y="-62" width="60" height="30" as="geometry" />
        </mxCell>
        <mxCell id="rJCrbgsS6W7o_3RO-0H0-51" value="&lt;b&gt;esNoche&lt;/b&gt;" style="text;html=1;strokeColor=none;fillColor=none;align=center;verticalAlign=middle;whiteSpace=wrap;rounded=0;fontSize=16;" vertex="1" parent="1">
          <mxGeometry x="690" y="-218" width="60" height="30" as="geometry" />
        </mxCell>
        <mxCell id="rJCrbgsS6W7o_3RO-0H0-52" value="" style="endArrow=none;html=1;rounded=0;fontSize=12;startSize=8;endSize=8;edgeStyle=none;curved=1;entryX=0.5;entryY=1;entryDx=0;entryDy=0;exitX=0.5;exitY=0;exitDx=0;exitDy=0;" edge="1" parent="1" source="rJCrbgsS6W7o_3RO-0H0-19" target="rJCrbgsS6W7o_3RO-0H0-51">
          <mxGeometry width="50" height="50" relative="1" as="geometry">
            <mxPoint x="605" y="-120" as="sourcePoint" />
            <mxPoint x="623" y="-178" as="targetPoint" />
          </mxGeometry>
        </mxCell>
        <mxCell id="rJCrbgsS6W7o_3RO-0H0-55" value="" style="verticalLabelPosition=bottom;verticalAlign=top;html=1;shape=mxgraph.basic.arc;startAngle=0.3;endAngle=0.7705747559124867;rotation=-195;" vertex="1" parent="1">
          <mxGeometry x="578" y="-161" width="44" height="41" as="geometry" />
        </mxCell>
        <mxCell id="rJCrbgsS6W7o_3RO-0H0-61" value="R&lt;span style=&quot;font-size: 13.3333px;&quot;&gt;6&lt;/span&gt;" style="rounded=1;whiteSpace=wrap;html=1;fontSize=16;" vertex="1" parent="1">
          <mxGeometry x="270.13" y="10" width="39" height="29" as="geometry" />
        </mxCell>
        <mxCell id="rJCrbgsS6W7o_3RO-0H0-62" value="R&lt;span style=&quot;font-size: 13.3333px;&quot;&gt;5&lt;/span&gt;" style="rounded=1;whiteSpace=wrap;html=1;fontSize=16;" vertex="1" parent="1">
          <mxGeometry x="480.5" y="10" width="39" height="29" as="geometry" />
        </mxCell>
        <mxCell id="rJCrbgsS6W7o_3RO-0H0-63" value="" style="endArrow=none;html=1;rounded=0;fontSize=12;startSize=8;endSize=8;edgeStyle=none;curved=1;entryX=0.5;entryY=0;entryDx=0;entryDy=0;exitX=0.5;exitY=1;exitDx=0;exitDy=0;" edge="1" parent="1" source="rJCrbgsS6W7o_3RO-0H0-50" target="rJCrbgsS6W7o_3RO-0H0-62">
          <mxGeometry width="50" height="50" relative="1" as="geometry">
            <mxPoint x="612" y="-149" as="sourcePoint" />
            <mxPoint x="623" y="-178" as="targetPoint" />
          </mxGeometry>
        </mxCell>
        <mxCell id="rJCrbgsS6W7o_3RO-0H0-64" value="" style="endArrow=none;html=1;rounded=0;fontSize=12;startSize=8;endSize=8;edgeStyle=none;curved=1;entryX=0.5;entryY=1;entryDx=0;entryDy=0;exitX=0.5;exitY=0;exitDx=0;exitDy=0;" edge="1" parent="1" source="rJCrbgsS6W7o_3RO-0H0-61" target="rJCrbgsS6W7o_3RO-0H0-8">
          <mxGeometry width="50" height="50" relative="1" as="geometry">
            <mxPoint x="622" y="-139" as="sourcePoint" />
            <mxPoint x="633" y="-168" as="targetPoint" />
          </mxGeometry>
        </mxCell>
        <mxCell id="rJCrbgsS6W7o_3RO-0H0-65" value="&lt;font style=&quot;font-size: 12px;&quot; color=&quot;#ff1212&quot;&gt;&lt;b&gt;FC=1&lt;/b&gt;&lt;/font&gt;" style="text;html=1;strokeColor=none;fillColor=none;align=center;verticalAlign=middle;whiteSpace=wrap;rounded=0;fontSize=16;" vertex="1" parent="1">
          <mxGeometry x="210.13" y="9" width="60" height="30" as="geometry" />
        </mxCell>
        <mxCell id="rJCrbgsS6W7o_3RO-0H0-66" value="&lt;font style=&quot;font-size: 12px;&quot; color=&quot;#ff1212&quot;&gt;&lt;b&gt;FC=1&lt;/b&gt;&lt;/font&gt;" style="text;html=1;strokeColor=none;fillColor=none;align=center;verticalAlign=middle;whiteSpace=wrap;rounded=0;fontSize=16;" vertex="1" parent="1">
          <mxGeometry x="530" y="-293" width="60" height="30" as="geometry" />
        </mxCell>
        <mxCell id="rJCrbgsS6W7o_3RO-0H0-67" value="&lt;font style=&quot;font-size: 12px;&quot; color=&quot;#ff1212&quot;&gt;&lt;b&gt;FC=0.6&lt;/b&gt;&lt;/font&gt;" style="text;html=1;strokeColor=none;fillColor=none;align=center;verticalAlign=middle;whiteSpace=wrap;rounded=0;fontSize=16;" vertex="1" parent="1">
          <mxGeometry x="420.5" y="10" width="60" height="30" as="geometry" />
        </mxCell>
      </root>
    </mxGraphModel>
  </diagram>
</mxfile>
